<svg width="43" height="43" viewBox="0 0 43 43" fill="none" xmlns="http://www.w3.org/2000/svg">
<g clip-path="url(#clip0_167_2)">
<path d="M34.0417 0H8.95833C4.01154 0 0 4.01154 0 8.95833V34.0417C0 38.9885 4.01154 43 8.95833 43H34.0417C38.9902 43 43 38.9885 43 34.0417V8.95833C43 4.01154 38.9902 0 34.0417 0ZM28.6667 12.5417H25.2195C24.1176 12.5417 23.2917 12.9932 23.2917 14.1345V16.125H28.6667L28.2402 21.5H23.2917V35.8333H17.9167V21.5H14.3333V16.125H17.9167V12.6796C17.9167 9.05687 19.823 7.16667 24.1176 7.16667H28.6667V12.5417Z" fill="white"/>
</g>
<defs>
<clipPath id="clip0_167_2">
<rect width="43" height="43" fill="white"/>
</clipPath>
</defs>
</svg>
